<svg version="1.1" id="Layer_1" xmlns="http://www.w3.org/2000/svg" xmlns:xlink="http://www.w3.org/1999/xlink" x="0px" y="0px"
	 width="100%" viewBox="0 0 1024 1024" enable-background="new 0 0 1024 1024" xml:space="preserve">
<path fill="#3B5998" opacity="1.000000" stroke="none" 
	d="
M1025.000000,960.000000 
	C1025.000000,981.664001 1025.000000,1003.327942 1025.000000,1024.993896 
	C683.711670,1024.995972 342.423309,1024.995972 1.067473,1024.995972 
	C1.067473,683.753967 1.067473,342.507904 1.067473,1.130919 
	C342.333313,1.130919 683.666626,1.130919 1025.000000,1.130919 
	C1025.000000,83.434334 1025.000000,165.757462 1024.613525,248.494446 
	C992.907532,241.044281 961.590820,233.168823 930.255188,225.369415 
	C929.278870,225.126404 928.106689,225.670227 926.657593,225.809067 
	C916.855469,221.344711 908.253845,221.976624 901.122986,230.217377 
	C897.991943,233.835754 894.530212,237.395035 892.358337,241.573517 
	C885.962036,253.879486 880.135742,266.481750 873.694458,278.932007 
	C872.666748,278.707428 872.036926,278.494354 871.394104,278.333771 
	C803.497986,261.372162 735.602478,244.408234 667.690491,227.510330 
	C666.569031,227.231293 665.246582,227.759537 663.645996,227.917633 
	C644.654358,221.111252 625.639709,221.215393 606.970764,226.632812 
	C595.775208,229.881577 585.280090,235.544174 574.071594,240.012695 
	C551.381775,234.284210 529.090515,228.664932 506.392975,223.055298 
	C495.367065,223.366348 488.291168,229.863480 482.934723,237.800888 
	C477.112640,246.428375 472.603729,255.942047 467.068207,265.125610 
	C464.818451,264.888519 462.991028,264.722107 461.231567,264.283264 
	C419.888031,253.971085 378.563477,243.582397 337.206848,233.323120 
	C325.317474,230.373749 313.339325,227.782196 301.033875,225.092834 
	C284.551025,220.251022 269.303040,223.948639 254.559357,230.356018 
	C219.614136,245.542603 192.340027,269.862305 172.198868,301.972992 
	C162.952301,316.714630 157.863541,333.029022 158.990402,350.843567 
	C159.904419,365.293304 168.448074,376.975220 181.333405,380.834198 
	C183.853745,381.589020 186.463028,382.046936 189.301437,382.906067 
	C205.083374,387.133148 220.595154,391.095917 236.096497,395.436340 
	C231.094604,411.131317 225.871384,426.379181 221.245605,441.806183 
	C219.758545,446.765503 217.339783,448.940399 212.308228,449.900482 
	C199.649887,452.315796 187.562561,456.465057 177.303528,464.666534 
	C171.237091,469.516357 167.566254,475.859222 166.188202,483.544983 
	C165.750656,485.985168 166.191025,487.420166 169.129150,487.443420 
	C170.882919,488.427185 172.486588,489.252930 174.189865,489.693420 
	C183.763260,492.169189 193.360657,494.552155 202.982635,497.346985 
	C189.478607,542.330505 175.693634,586.860535 162.485550,631.561035 
	C152.389496,665.729431 144.268829,700.400696 138.264893,735.546936 
	C137.832733,738.076660 138.208939,739.394653 141.291382,739.388306 
	C147.920105,741.373901 154.260727,743.208557 160.661575,744.801147 
	C183.675781,750.527588 206.720032,756.133118 229.734818,761.857239 
	C261.748413,769.819275 293.745667,777.846863 325.749939,785.846313 
	C347.126160,791.189331 368.507355,796.512512 389.877197,801.880981 
	C409.656006,806.849792 429.402130,811.950256 449.199738,816.842651 
	C476.098114,823.489746 503.061432,829.875488 529.939453,836.603088 
	C546.652588,840.786377 563.236206,845.484558 579.921997,849.780640 
	C591.156555,852.673279 602.470947,855.255249 613.744446,857.997437 
	C636.621399,863.562073 659.517090,869.051697 682.365051,874.733215 
	C726.463440,885.699219 770.537476,896.763306 814.614624,907.814575 
	C834.529053,912.807617 854.408386,917.941345 874.336670,922.878235 
	C900.263794,929.301208 926.231018,935.562256 952.167358,941.948242 
	C976.454163,947.928040 1000.723145,953.979858 1025.000000,960.000000 
z"/>
<path fill="#0B2968" opacity="1.000000" stroke="none" 
	d="
M506.799225,223.045654 
	C529.090515,228.664932 551.381775,234.284210 573.850586,240.291504 
	C551.782227,254.612274 534.392273,273.039764 522.766357,296.650909 
	C513.879028,314.700317 509.430176,333.479248 514.058960,353.690033 
	C518.375122,372.535767 537.342224,385.576080 555.792847,382.068756 
	C554.885559,378.879089 553.746887,375.737579 553.112610,372.497345 
	C550.330383,358.282837 550.614746,344.049774 552.918213,329.779053 
	C556.841248,305.474701 564.123047,282.560333 579.509644,262.802673 
	C590.832825,248.262833 604.818665,239.382309 624.027344,241.066681 
	C636.488342,242.159363 645.606567,247.756638 650.710022,259.652405 
	C657.609192,275.733887 658.326599,292.581757 655.283142,309.201141 
	C650.916077,333.048340 644.980713,356.615021 639.473816,380.245239 
	C631.589417,414.077148 622.690674,447.696381 615.775696,481.721588 
	C611.590088,502.317078 611.329895,523.472961 618.231079,543.967957 
	C625.345520,565.096069 638.230042,580.681335 661.098877,584.804871 
	C700.671936,591.940247 735.161682,581.387512 764.315430,553.451904 
	C786.060791,532.615173 803.204529,508.392242 817.771301,482.203033 
	C818.568848,480.769135 819.393921,479.350494 820.206177,477.924744 
	C820.902588,478.995331 820.919922,479.662415 820.790833,480.299805 
	C816.530823,501.319031 812.200012,522.324036 807.997009,543.354614 
	C800.108887,582.825317 792.763855,622.415710 779.863892,660.692566 
	C769.181580,692.389099 756.616211,723.112000 735.110779,749.312134 
	C714.107117,774.900818 687.936584,789.582275 653.889954,786.896423 
	C635.665527,785.458862 620.988586,777.941528 612.342163,760.975464 
	C605.078552,746.722778 604.656311,731.531250 606.517944,716.123962 
	C607.327942,709.419678 608.783813,702.793396 610.025391,695.678589 
	C597.656189,699.371765 587.266052,705.355408 580.347168,715.953430 
	C563.836487,741.243591 573.163696,774.994629 600.053528,789.077087 
	C618.451111,798.712097 637.951721,802.821777 658.649170,803.227661 
	C701.718750,804.072327 737.268982,788.282349 765.318481,755.885498 
	C787.518677,730.244690 803.222473,700.564697 813.637207,668.592468 
	C825.580994,631.925903 835.946167,594.707397 845.862427,557.426819 
	C861.463745,498.773254 875.661133,439.745636 891.334595,381.112061 
	C901.365540,343.586975 914.847412,307.203430 933.500366,272.960297 
	C938.966309,262.925934 944.993469,253.197174 950.836304,243.203644 
	C943.817871,235.890396 936.017700,230.061508 927.025818,225.847229 
	C928.106689,225.670227 929.278870,225.126404 930.255188,225.369415 
	C961.590820,233.168823 992.907532,241.044281 1024.613525,248.954163 
	C1025.000000,485.687561 1025.000000,722.375122 1025.000000,959.531372 
	C1000.723145,953.979858 976.454163,947.928040 952.167358,941.948242 
	C926.231018,935.562256 900.263794,929.301208 874.336670,922.878235 
	C854.408386,917.941345 834.529053,912.807617 814.614624,907.814575 
	C770.537476,896.763306 726.463440,885.699219 682.365051,874.733215 
	C659.517090,869.051697 636.621399,863.562073 613.744446,857.997437 
	C602.470947,855.255249 591.156555,852.673279 579.921997,849.780640 
	C563.236206,845.484558 546.652588,840.786377 529.939453,836.603088 
	C503.061432,829.875488 476.098114,823.489746 449.199738,816.842651 
	C429.402130,811.950256 409.656006,806.849792 389.877197,801.880981 
	C368.507355,796.512512 347.126160,791.189331 325.749939,785.846313 
	C293.745667,777.846863 261.748413,769.819275 229.734818,761.857239 
	C206.720032,756.133118 183.675781,750.527588 160.661575,744.801147 
	C154.260727,743.208557 147.920105,741.373901 141.671356,739.299072 
	C156.819733,735.272095 168.900436,727.134399 175.448898,713.080139 
	C180.613144,701.996765 184.141312,690.100708 187.823227,678.385559 
	C208.384048,612.964905 228.750259,547.483154 249.343170,482.072662 
	C249.816696,480.568573 252.065506,478.837311 253.677795,478.617584 
	C259.773560,477.786835 265.941101,477.299408 272.094940,477.109253 
	C302.236206,476.178131 332.379547,475.289398 362.526825,474.587921 
	C374.640594,474.306000 386.766388,474.541473 399.274902,474.541473 
	C398.691254,476.710236 398.300140,478.307709 397.831635,479.882111 
	C392.989990,496.152283 387.963043,512.369629 383.318054,528.695618 
	C370.389130,574.137329 356.550598,619.379211 351.434509,666.627502 
	C349.942810,680.403564 349.017303,694.168701 352.004425,707.908020 
	C356.231964,727.352966 373.720215,740.263184 393.925659,738.541687 
	C393.618561,733.100525 393.097290,727.652710 393.039398,722.199951 
	C392.752258,695.140442 395.178314,668.224792 399.724152,641.631714 
	C406.196472,603.768677 413.620789,566.061340 421.134094,528.386353 
	C424.769653,510.155975 429.534241,492.150787 433.864838,473.715057 
	C454.066406,473.077240 473.324188,470.682709 486.858337,453.488281 
	C471.122620,452.581451 455.695892,451.692413 439.766632,450.774445 
	C443.599548,436.397797 447.315826,422.425293 451.050171,408.457642 
	C467.727173,346.080627 484.593140,283.760254 506.799225,223.045654 
z"/>
<path fill="#FDFDFE" opacity="1.000000" stroke="none" 
	d="
M926.657593,225.809052 
	C936.017700,230.061508 943.817871,235.890396 950.836304,243.203644 
	C944.993469,253.197174 938.966309,262.925934 933.500366,272.960297 
	C914.847412,307.203430 901.365540,343.586975 891.334595,381.112061 
	C875.661133,439.745636 861.463745,498.773254 845.862427,557.426819 
	C835.946167,594.707397 825.580994,631.925903 813.637207,668.592468 
	C803.222473,700.564697 787.518677,730.244690 765.318481,755.885498 
	C737.268982,788.282349 701.718750,804.072327 658.649170,803.227661 
	C637.951721,802.821777 618.451111,798.712097 600.053528,789.077087 
	C573.163696,774.994629 563.836487,741.243591 580.347168,715.953430 
	C587.266052,705.355408 597.656189,699.371765 610.025391,695.678589 
	C608.783813,702.793396 607.327942,709.419678 606.517944,716.123962 
	C604.656311,731.531250 605.078552,746.722778 612.342163,760.975464 
	C620.988586,777.941528 635.665527,785.458862 653.889954,786.896423 
	C687.936584,789.582275 714.107117,774.900818 735.110779,749.312134 
	C756.616211,723.112000 769.181580,692.389099 779.863892,660.692566 
	C792.763855,622.415710 800.108887,582.825317 807.997009,543.354614 
	C812.200012,522.324036 816.530823,501.319031 820.790833,480.299805 
	C820.919922,479.662415 820.902588,478.995331 820.206177,477.924744 
	C819.393921,479.350494 818.568848,480.769135 817.771301,482.203033 
	C803.204529,508.392242 786.060791,532.615173 764.315430,553.451904 
	C735.161682,581.387512 700.671936,591.940247 661.098877,584.804871 
	C638.230042,580.681335 625.345520,565.096069 618.231079,543.967957 
	C611.329895,523.472961 611.590088,502.317078 615.775696,481.721588 
	C622.690674,447.696381 631.589417,414.077148 639.473816,380.245239 
	C644.980713,356.615021 650.916077,333.048340 655.283142,309.201141 
	C658.326599,292.581757 657.609192,275.733887 650.710022,259.652405 
	C645.606567,247.756638 636.488342,242.159363 624.027344,241.066681 
	C604.818665,239.382309 590.832825,248.262833 579.509644,262.802673 
	C564.123047,282.560333 556.841248,305.474701 552.918213,329.779053 
	C550.614746,344.049774 550.330383,358.282837 553.112610,372.497345 
	C553.746887,375.737579 554.885559,378.879089 555.792847,382.068756 
	C537.342224,385.576080 518.375122,372.535767 514.058960,353.690033 
	C509.430176,333.479248 513.879028,314.700317 522.766357,296.650909 
	C534.392273,273.039764 551.782227,254.612274 574.249146,240.400696 
	C585.280090,235.544174 595.775208,229.881577 606.970764,226.632812 
	C625.639709,221.215393 644.654358,221.111252 663.959290,228.076691 
	C683.822693,236.973068 694.907288,251.986664 699.156372,272.434387 
	C702.244385,287.294891 700.982544,302.057739 697.413940,316.502319 
	C690.113586,346.051544 682.242371,375.461487 674.433716,404.882996 
	C666.358521,435.309082 658.534424,465.749878 658.031433,497.522736 
	C657.785339,513.068970 659.808533,528.083618 667.269714,541.982117 
	C670.645264,548.269897 675.219849,553.460754 681.754822,556.632751 
	C696.924500,563.995972 712.347229,562.368896 727.323364,556.664978 
	C747.224731,549.085083 761.948792,534.540649 775.073181,518.335022 
	C797.695435,490.401398 813.999512,458.771606 828.237061,426.007874 
	C832.602539,415.962006 836.927185,405.792694 839.982117,395.304596 
	C846.775635,371.981506 852.457764,348.335785 859.171265,324.987854 
	C863.624939,309.498932 869.079712,294.297943 874.086365,278.968048 
	C880.135742,266.481750 885.962036,253.879486 892.358337,241.573517 
	C894.530212,237.395035 897.991943,233.835754 901.122986,230.217377 
	C908.253845,221.976624 916.855469,221.344711 926.657593,225.809052 
z"/>
<path fill="#FDFDFE" opacity="1.000000" stroke="none" 
	d="
M506.392975,223.055298 
	C484.593140,283.760254 467.727173,346.080627 451.050171,408.457642 
	C447.315826,422.425293 443.599548,436.397797 439.766632,450.774445 
	C455.695892,451.692413 471.122620,452.581451 486.858337,453.488281 
	C473.324188,470.682709 454.066406,473.077240 433.864838,473.715057 
	C429.534241,492.150787 424.769653,510.155975 421.134094,528.386353 
	C413.620789,566.061340 406.196472,603.768677 399.724152,641.631714 
	C395.178314,668.224792 392.752258,695.140442 393.039398,722.199951 
	C393.097290,727.652710 393.618561,733.100525 393.925659,738.541687 
	C373.720215,740.263184 356.231964,727.352966 352.004425,707.908020 
	C349.017303,694.168701 349.942810,680.403564 351.434509,666.627502 
	C356.550598,619.379211 370.389130,574.137329 383.318054,528.695618 
	C387.963043,512.369629 392.989990,496.152283 397.831635,479.882111 
	C398.300140,478.307709 398.691254,476.710236 399.274902,474.541473 
	C386.766388,474.541473 374.640594,474.306000 362.526825,474.587921 
	C332.379547,475.289398 302.236206,476.178131 272.094940,477.109253 
	C265.941101,477.299408 259.773560,477.786835 253.677795,478.617584 
	C252.065506,478.837311 249.816696,480.568573 249.343170,482.072662 
	C228.750259,547.483154 208.384048,612.964905 187.823227,678.385559 
	C184.141312,690.100708 180.613144,701.996765 175.448898,713.080139 
	C168.900436,727.134399 156.819733,735.272095 141.410904,739.037109 
	C138.208939,739.394653 137.832733,738.076660 138.264893,735.546936 
	C144.268829,700.400696 152.389496,665.729431 162.485550,631.561035 
	C175.693634,586.860535 189.478607,542.330505 203.204224,497.064514 
	C204.864014,492.071716 206.334961,487.741516 208.128372,482.462097 
	C194.560226,484.073975 181.792648,485.590729 169.025070,487.107483 
	C166.191025,487.420166 165.750656,485.985168 166.188202,483.544983 
	C167.566254,475.859222 171.237091,469.516357 177.303528,464.666534 
	C187.562561,456.465057 199.649887,452.315796 212.308228,449.900482 
	C217.339783,448.940399 219.758545,446.765503 221.245605,441.806183 
	C225.871384,426.379181 231.094604,411.131317 236.336258,395.167297 
	C249.523621,356.748840 262.712830,319.060272 275.230164,281.149811 
	C278.584259,270.991669 280.407928,260.232178 281.948975,249.605850 
	C282.947693,242.719055 280.350769,240.843887 273.236328,240.869171 
	C264.064087,240.901779 255.937866,244.145752 248.653687,249.401901 
	C236.440826,258.214539 227.211578,269.755157 219.576324,282.597687 
	C206.342163,304.857727 196.375412,328.384033 194.586075,354.517517 
	C193.951157,363.790588 195.399109,373.206238 195.900711,382.641785 
	C193.995193,382.641785 191.513229,382.641785 189.031281,382.641785 
	C186.463028,382.046936 183.853745,381.589020 181.333405,380.834198 
	C168.448074,376.975220 159.904419,365.293304 158.990402,350.843567 
	C157.863541,333.029022 162.952301,316.714630 172.198868,301.972992 
	C192.340027,269.862305 219.614136,245.542603 254.559357,230.356018 
	C269.303040,223.948639 284.551025,220.251022 301.272766,225.375488 
	C305.176086,228.967239 309.319183,231.852966 311.608093,235.810959 
	C318.132324,247.092621 317.085785,259.293579 313.544861,271.186798 
	C301.676392,311.050446 289.532959,350.832306 277.469940,390.637939 
	C272.134949,408.242401 266.740143,425.828735 261.315674,443.609467 
	C310.210358,441.199432 358.557281,443.090790 406.778412,448.176025 
	C407.287323,446.857971 407.695740,445.954865 407.989838,445.015930 
	C415.838867,419.956970 423.313599,394.773712 431.602600,369.861298 
	C443.259857,334.825531 455.519897,299.990295 467.522217,265.069305 
	C472.603729,255.942047 477.112640,246.428375 482.934723,237.800888 
	C488.291168,229.863480 495.367065,223.366348 506.392975,223.055298 
z"/>
<path fill="#0C2968" opacity="1.000000" stroke="none" 
	d="
M873.694458,278.932007 
	C869.079712,294.297943 863.624939,309.498932 859.171265,324.987854 
	C852.457764,348.335785 846.775635,371.981506 839.982117,395.304596 
	C836.927185,405.792694 832.602539,415.962006 828.237061,426.007874 
	C813.999512,458.771606 797.695435,490.401398 775.073181,518.335022 
	C761.948792,534.540649 747.224731,549.085083 727.323364,556.664978 
	C712.347229,562.368896 696.924500,563.995972 681.754822,556.632751 
	C675.219849,553.460754 670.645264,548.269897 667.269714,541.982117 
	C659.808533,528.083618 657.785339,513.068970 658.031433,497.522736 
	C658.534424,465.749878 666.358521,435.309082 674.433716,404.882996 
	C682.242371,375.461487 690.113586,346.051544 697.413940,316.502319 
	C700.982544,302.057739 702.244385,287.294891 699.156372,272.434387 
	C694.907288,251.986664 683.822693,236.973068 664.331177,228.070129 
	C665.246582,227.759537 666.569031,227.231293 667.690491,227.510330 
	C735.602478,244.408234 803.497986,261.372162 871.394104,278.333771 
	C872.036926,278.494354 872.666748,278.707428 873.694458,278.932007 
z"/>
<path fill="#0C2A68" opacity="1.000000" stroke="none" 
	d="
M467.068176,265.125610 
	C455.519897,299.990295 443.259857,334.825531 431.602600,369.861298 
	C423.313599,394.773712 415.838867,419.956970 407.989838,445.015930 
	C407.695740,445.954865 407.287323,446.857971 406.778412,448.176025 
	C358.557281,443.090790 310.210358,441.199432 261.315674,443.609467 
	C266.740143,425.828735 272.134949,408.242401 277.469940,390.637939 
	C289.532959,350.832306 301.676392,311.050446 313.544861,271.186798 
	C317.085785,259.293579 318.132324,247.092621 311.608093,235.810959 
	C309.319183,231.852966 305.176086,228.967239 301.640747,225.309250 
	C313.339325,227.782196 325.317474,230.373749 337.206848,233.323120 
	C378.563477,243.582397 419.888031,253.971085 461.231567,264.283264 
	C462.991028,264.722107 464.818451,264.888519 467.068176,265.125610 
z"/>
<path fill="#0C2A69" opacity="1.000000" stroke="none" 
	d="
M189.301437,382.906067 
	C191.513229,382.641785 193.995193,382.641785 195.900711,382.641785 
	C195.399109,373.206238 193.951157,363.790588 194.586075,354.517517 
	C196.375412,328.384033 206.342163,304.857727 219.576324,282.597687 
	C227.211578,269.755157 236.440826,258.214539 248.653687,249.401901 
	C255.937866,244.145752 264.064087,240.901779 273.236328,240.869171 
	C280.350769,240.843887 282.947693,242.719055 281.948975,249.605850 
	C280.407928,260.232178 278.584259,270.991669 275.230164,281.149811 
	C262.712830,319.060272 249.523621,356.748840 236.346680,394.789673 
	C220.595154,391.095917 205.083374,387.133148 189.301437,382.906067 
z"/>
<path fill="#102D6B" opacity="1.000000" stroke="none" 
	d="
M169.129150,487.443420 
	C181.792648,485.590729 194.560226,484.073975 208.128372,482.462097 
	C206.334961,487.741516 204.864014,492.071716 203.171463,496.684357 
	C193.360657,494.552155 183.763260,492.169189 174.189865,489.693420 
	C172.486588,489.252930 170.882919,488.427185 169.129150,487.443420 
z"/>
</svg>