<svg xmlns="http://www.w3.org/2000/svg" width="1200" height="1200" viewBox="0 0 1200 1200" fill="none">
  <defs>
    <linearGradient id="line" x1="0" y1="0" x2="1200" y2="1200" gradientUnits="userSpaceOnUse">
      <stop stop-color="#7C3AED" stop-opacity="0.10"/>
      <stop offset="0.5" stop-color="#A855F7" stop-opacity="0.08"/>
      <stop offset="1" stop-color="#EC4899" stop-opacity="0.06"/>
    </linearGradient>
  </defs>
  <rect width="1200" height="1200" fill="transparent"/>
  <g stroke="url(#line)" stroke-width="1.2" stroke-linecap="round">
    <path d="M-80 155C65 106 165 112 281 148c106 33 201 38 330 0 148-44 251-42 394 9 110 39 213 46 355 2"/>
    <path d="M-95 215c145-49 245-43 361-7 106 33 201 38 330 0 148-44 251-42 394 9 110 39 213 46 355 2"/>
    <path d="M-80 285c128-43 233-43 343-11 123 36 219 34 349-7 139-44 260-43 388 4 111 40 212 48 350 9"/>
    <path d="M-100 355c150-52 269-44 384-2 102 37 196 35 323-2 142-41 251-44 389 0 109 34 212 40 344 3"/>
    <path d="M-75 430c131-49 244-48 374-5 112 37 211 35 335-6 131-44 243-48 371-8 105 33 214 37 345-2"/>
    <path d="M-110 505c168-55 293-44 412 2 101 39 194 37 310-1 140-46 257-52 392-11 99 30 210 38 336 0"/>
    <path d="M-90 585c148-49 271-44 390 1 108 41 195 42 313 7 145-43 268-46 402-3 100 31 196 36 325-1"/>
    <path d="M-108 660c166-52 286-45 398 4 110 48 210 46 333 5 133-44 251-48 386-4 99 32 195 36 316-3"/>
    <path d="M-82 740c149-48 271-43 385 2 122 48 232 44 359-2 121-44 238-44 362-5 111 35 207 43 339 4"/>
    <path d="M-112 818c171-55 297-43 409 4 105 44 203 42 329 2 144-46 265-49 392-7 95 32 189 40 321 5"/>
    <path d="M-86 900c155-50 280-44 401 2 111 42 208 39 327-3 144-50 278-54 414-10 88 28 175 34 300-1"/>
    <path d="M-120 980c188-61 321-46 430 4 102 47 202 44 333-2 155-54 282-53 411-9 86 29 171 34 297-2"/>
    <path d="M115 0c35 88 41 168 8 256-31 84-31 165 6 270 42 119 42 211-4 324-35 87-40 173-2 350"/>
    <path d="M245 0c33 84 39 164 8 249-34 93-31 178 7 289 38 111 38 211-5 323-33 87-39 172-3 339"/>
    <path d="M390 0c33 90 35 175 2 263-33 89-28 181 9 295 37 113 37 216-9 330-32 80-36 164-2 312"/>
    <path d="M540 0c35 87 37 173 0 262-36 89-32 185 5 302 37 115 37 219-6 335-31 83-34 168 1 301"/>
    <path d="M690 0c36 88 38 174 2 262-36 87-31 182 6 295 39 119 38 227-7 341-30 76-34 158 0 302"/>
    <path d="M840 0c39 98 40 191 0 284-30 71-29 160 5 275 42 145 40 243-12 362-24 55-31 125-2 279"/>
    <path d="M980 0c43 98 47 191 11 280-29 72-28 164 6 286 40 145 37 247-11 363-21 51-28 115-1 271"/>
  </g>
</svg>
